<svg xmlns="http://www.w3.org/2000/svg" version="1.1" xmlns:xlink="http://www.w3.org/1999/xlink" xmlns:svgjs="http://svgjs.com/svgjs" width="100%" height="100%" preserveAspectRatio="none" viewBox="0 0 1440 560"><g mask="url(&quot;#SvgjsMask1126&quot;)" fill="none"><rect width="1440" height="560" x="0" y="0" fill="rgba(7, 148, 255, 1)"></rect><path d="M0,611.058C112.206,597.738,212.904,537.313,296.341,461.116C371.152,392.797,400.97,294.435,446.057,203.708C492.881,109.486,572.92,23.614,565.929,-81.368C558.811,-188.265,478.953,-273.256,408.898,-354.312C338.766,-435.457,265.368,-523.372,161.343,-549.485C58.617,-575.272,-42.428,-520.281,-144.851,-493.316C-250.585,-465.479,-366.774,-461.19,-448.767,-388.859C-535.523,-312.326,-607.541,-202.712,-605.395,-87.043C-603.298,26.004,-481.327,95.586,-437.845,199.957C-392.078,309.813,-432.051,455.824,-345.292,537.284C-257.716,619.511,-119.29,625.219,0,611.058" fill="#0083e7"></path><path d="M1440 1014.539C1537.97 1021.4100000000001 1647.55 1064.537 1728.614 1009.092 1809.722 953.617 1796.434 830.7950000000001 1838.491 741.985 1881.365 651.452 1988.005 582.322 1977.914 482.65999999999997 1967.8429999999998 383.193 1865.594 321.974 1789.411 257.234 1722.953 200.75799999999998 1650.03 154.098 1565.593 132.269 1483.077 110.93700000000001 1395.169 105.42000000000002 1315.095 134.613 1237.545 162.88600000000002 1182.443 227.63099999999997 1129.749 291.166 1078.064 353.485 1039.195 421.961 1013.19 498.634 982.326 589.634 933.595 686.111 964.994 776.928 996.8399999999999 869.037 1089.1190000000001 926.7529999999999 1176.281 970.354 1257.643 1011.054 1349.249 1008.174 1440 1014.539" fill="#26a2ff"></path></g><defs><mask id="SvgjsMask1126"><rect width="1440" height="560" fill="#ffffff"></rect></mask></defs></svg>